<?xml version="1.0" standalone="no"?>
<!DOCTYPE svg PUBLIC "-//W3C//DTD SVG 20010904//EN"
 "http://www.w3.org/TR/2001/REC-SVG-20010904/DTD/svg10.dtd">
<svg version="1.0" xmlns="http://www.w3.org/2000/svg"
 width="1280.000000pt" height="1280.000000pt" viewBox="0 0 1280.000000 1280.000000"
 preserveAspectRatio="xMidYMid meet">
<g transform="translate(0.000000,1280.000000) scale(0.100000,-0.100000)"
fill="#000000" stroke="none">
<path d="M10 6395 l0 -6395 6395 0 6395 0 0 6395 0 6395 -6395 0 -6395 0 0
-6395z m12078 3122 l2 -2677 -2677 2 -2678 3 -3 2665 c-1 1466 0 2671 3 2678
3 10 544 12 2677 10 l2673 -3 3 -2678z m-6073 -27 l0 -2675 -2675 0 -2675 0
-3 2665 c-1 1466 0 2671 3 2678 3 10 544 12 2677 10 l2673 -3 0 -2675z m6073
-5983 l2 -2677 -2677 2 -2678 3 -3 2664 c-1 1963 1 2667 9 2677 10 12 443 14
2678 12 l2666 -3 3 -2678z m-6084 2647 c15 -6 16 -251 16 -2679 l0 -2673 -22
-6 c-30 -8 -5286 -8 -5315 0 l-23 6 0 2673 c0 2129 3 2674 13 2678 18 8 5312
8 5331 1z"/>
</g>
</svg>
